<?xml version="1.0" encoding="UTF-8" standalone="no"?>
<svg
   shape-rendering="crispEdges"
   inkscape:version="1.2 (dc2aedaf03, 2022-05-15)"
   id="svg1937"
   version="1.1"
   viewBox="0 0 24 24"
   height="24"
   width="24"
   xml:space="preserve"
   sodipodi:docname="logo_typescript.svg"
   xmlns:inkscape="http://www.inkscape.org/namespaces/inkscape"
   xmlns:sodipodi="http://sodipodi.sourceforge.net/DTD/sodipodi-0.dtd"
   xmlns="http://www.w3.org/2000/svg"
   xmlns:svg="http://www.w3.org/2000/svg"
   xmlns:rdf="http://www.w3.org/1999/02/22-rdf-syntax-ns#"
   xmlns:cc="http://creativecommons.org/ns#"
   xmlns:dc="http://purl.org/dc/elements/1.1/"><defs
     id="defs1931" /><sodipodi:namedview
     units="px"
     inkscape:snap-page="true"
     showborder="false"
     showgrid="false"
     inkscape:document-rotation="0"
     inkscape:current-layer="layer1"
     inkscape:document-units="px"
     inkscape:cy="12.142857"
     inkscape:cx="18.571429"
     inkscape:zoom="11.2"
     inkscape:pageshadow="2"
     inkscape:pageopacity="0.0"
     borderopacity="1.0"
     bordercolor="#666666"
     pagecolor="#ffffff"
     id="base"
     inkscape:showpageshadow="0"
     inkscape:pagecheckerboard="1"
     inkscape:deskcolor="#d1d1d1"
     inkscape:window-width="1366"
     inkscape:window-height="715"
     inkscape:window-x="-8"
     inkscape:window-y="-8"
     inkscape:window-maximized="1" /><metadata
     id="metadata1934"><rdf:RDF><cc:Work
         rdf:about=""><dc:format>image/svg+xml</dc:format><dc:type
           rdf:resource="http://purl.org/dc/dcmitype/StillImage" /></cc:Work></rdf:RDF></metadata><g
     id="layer1"
     inkscape:groupmode="layer"
     inkscape:label="Layer 1"><rect
       style="fill:#2d79c7;stroke-width:1.13386;stroke-dashoffset:18.8976;fill-opacity:1"
       id="rect3739"
       width="24"
       height="24"
       x="0"
       y="0"
       ry="2"
       rx="2" /><g
       aria-label="TS"
       id="text4019"
       style="font-size:11.7825px;line-height:0.65;font-family:'SHARE TECH MONO';-inkscape-font-specification:'SHARE TECH MONO, Normal';font-variant-ligatures:none;letter-spacing:-0.941246px;word-spacing:0px;text-orientation:sideways;fill:#ffffff"><path
         d="m 14.640794,12.928971 v 1.331423 h -2.191545 v 6.892762 H 10.799698 V 14.260394 H 8.6081534 v -1.331423 z"
         style="font-weight:600;font-family:Poppins;-inkscape-font-specification:'Poppins Semi-Bold'"
         id="path4366" /><path
         d="m 17.740941,21.235634 q -0.860122,0 -1.55529,-0.294563 -0.683385,-0.294562 -1.08399,-0.84834 -0.400605,-0.553777 -0.412387,-1.307857 h 1.767375 q 0.03535,0.506647 0.353475,0.80121 0.32991,0.294562 0.89547,0.294562 0.577342,0 0.907252,-0.270997 0.32991,-0.28278 0.32991,-0.730515 0,-0.365258 -0.223867,-0.600908 -0.223868,-0.23565 -0.56556,-0.365257 -0.32991,-0.14139 -0.919035,-0.306345 -0.80121,-0.23565 -1.307858,-0.459518 -0.494865,-0.23565 -0.860122,-0.695167 -0.353475,-0.4713 -0.353475,-1.248945 0,-0.730515 0.365257,-1.27251 0.365258,-0.541995 1.025078,-0.824775 0.65982,-0.294563 1.50816,-0.294563 1.27251,0 2.061937,0.624473 0.80121,0.61269 0.883688,1.720245 h -1.814505 q -0.02356,-0.42417 -0.365258,-0.695168 -0.32991,-0.28278 -0.883687,-0.28278 -0.483083,0 -0.777645,0.247433 -0.28278,0.247432 -0.28278,0.718732 0,0.32991 0.212085,0.553778 0.223867,0.212085 0.541995,0.353475 0.32991,0.129607 0.919035,0.306345 0.80121,0.23565 1.307857,0.4713 0.506648,0.23565 0.871905,0.70695 0.365258,0.4713 0.365258,1.237162 0,0.65982 -0.341693,1.22538 -0.341692,0.56556 -1.001512,0.907253 -0.65982,0.32991 -1.567073,0.32991 z"
         style="font-weight:600;font-family:Poppins;-inkscape-font-specification:'Poppins Semi-Bold'"
         id="path4368" /></g></g><inkscape:templateinfo><inkscape:name>MEU MODELO</inkscape:name><inkscape:author>NICK</inkscape:author><inkscape:date>2020-09-23</inkscape:date></inkscape:templateinfo></svg>
